<svg width="20" height="20" viewBox="0 0 20 20" fill="none" xmlns="http://www.w3.org/2000/svg">
<path fill-rule="evenodd" clip-rule="evenodd" d="M13.7862 2.95251C14.687 2.05178 16.1473 2.05178 17.0481 2.95251C17.9488 3.85325 17.9488 5.31362 17.0481 6.21436L6.21474 17.0477C5.31401 17.9484 3.85363 17.9484 2.95289 17.0477C2.05216 16.147 2.05216 14.6866 2.95289 13.7858L13.7862 2.95251ZM15.8696 4.13102C15.6197 3.88116 15.2146 3.88116 14.9647 4.13103L13.4707 5.6251L14.3755 6.52992L15.8696 5.03585C16.1194 4.78599 16.1194 4.38088 15.8696 4.13102Z" fill="black" style="fill:black;fill-opacity:1;"/>
<path d="M8.20888 1.72889C8.28952 1.68857 8.35491 1.62319 8.39522 1.54255L8.79377 0.745464C8.94732 0.438361 9.38557 0.438361 9.53912 0.745464L9.93766 1.54255C9.97798 1.62319 10.0434 1.68857 10.124 1.72889L10.9211 2.12743C11.2282 2.28098 11.2282 2.71923 10.9211 2.87279L10.124 3.27133C10.0434 3.31165 9.97798 3.37703 9.93766 3.45767L9.53912 4.25475C9.38557 4.56186 8.94732 4.56186 8.79377 4.25475L8.39522 3.45767C8.35491 3.37703 8.28952 3.31165 8.20888 3.27133L7.4118 2.87279C7.1047 2.71923 7.1047 2.28098 7.4118 2.12743L8.20888 1.72889Z" fill="black" style="fill:black;fill-opacity:1;"/>
<path d="M15.7089 10.8956C15.7895 10.8552 15.8549 10.7899 15.8952 10.7092L16.2938 9.91213C16.4473 9.60503 16.8856 9.60503 17.0391 9.91213L17.4377 10.7092C17.478 10.7899 17.5434 10.8552 17.624 10.8956L18.4211 11.2941C18.7282 11.4476 18.7282 11.8859 18.4211 12.0395L17.624 12.438C17.5434 12.4783 17.478 12.5437 17.4377 12.6243L17.0391 13.4214C16.8856 13.7285 16.4473 13.7285 16.2938 13.4214L15.8952 12.6243C15.8549 12.5437 15.7895 12.4783 15.7089 12.438L14.9118 12.0395C14.6047 11.8859 14.6047 11.4476 14.9118 11.2941L15.7089 10.8956Z" fill="black" style="fill:black;fill-opacity:1;"/>
<path d="M4.04222 5.89556C4.12285 5.85524 4.18824 5.78985 4.22856 5.70922L4.6271 4.91213C4.78065 4.60503 5.2189 4.60503 5.37246 4.91213L5.771 5.70922C5.81132 5.78985 5.8767 5.85524 5.95734 5.89556L6.75442 6.2941C7.06153 6.44765 7.06153 6.8859 6.75442 7.03945L5.95734 7.43799C5.8767 7.47831 5.81132 7.5437 5.771 7.62433L5.37246 8.42142C5.2189 8.72852 4.78065 8.72852 4.6271 8.42142L4.22856 7.62433C4.18824 7.5437 4.12285 7.47831 4.04222 7.43799L3.24513 7.03945C2.93803 6.8859 2.93803 6.44765 3.24513 6.2941L4.04222 5.89556Z" fill="black" style="fill:black;fill-opacity:1;"/>
</svg>
