<svg width="21" height="20" viewBox="0 0 21 20" fill="none" xmlns="http://www.w3.org/2000/svg">
<g clip-path="url(#clip0_46_6424)">
<path d="M15.2686 2.3207C15.2306 2.39652 15.1398 2.42891 15.0624 2.39416C13.9115 1.87046 12.5126 1.69352 11.5932 1.69352C8.28752 1.69352 4.98104 3.30569 4.98104 5.95577C4.98104 7.37678 6.0466 8.57899 7.60427 8.57899C9.32544 8.57899 10.6098 7.32228 11.6477 6.17457C12.5766 5.13665 13.6698 3.98894 15.2267 3.98894C16.921 3.98894 18.1501 5.24566 18.1501 6.93997C18.1501 9.61769 14.9258 12.6232 10.4724 12.6232C6.01896 12.6232 2.79542 10.2457 2.79542 6.93997C2.79542 3.85229 6.45656 1.06556 10.4731 1.06556C12.5229 1.06556 14.0664 1.49526 15.2022 2.11137C15.2773 2.15245 15.3065 2.24487 15.2686 2.32149V2.3207ZM10.4731 0C4.98104 0 0.5 4.48104 0.5 9.97314C0.5 15.4652 4.98104 20.0008 10.4731 20.0008C15.9652 20.0008 20.5008 15.5197 20.5008 9.97314C20.5008 4.42654 16.019 0 10.4731 0Z" fill="black" style="fill:black;fill-opacity:1;"/>
</g>
<defs>
<clipPath id="clip0_46_6424">
<rect width="20" height="20" fill="white" style="fill:white;fill-opacity:1;" transform="translate(0.5)"/>
</clipPath>
</defs>
</svg>
