<svg width="78" height="78" viewBox="0 0 78 78" fill="none" xmlns="http://www.w3.org/2000/svg">
<path d="M77.2812 39.205C77.2812 39.5933 77.2758 39.9813 77.2646 40.3696H77.2204H58.645V39.5212H40.7246C40.7246 39.3438 40.73 39.1662 40.73 38.9946C40.73 38.8225 40.73 38.6396 40.7246 38.4675H58.645V37.625H58.6729H77.2479C77.27 38.1517 77.2812 38.6783 77.2812 39.205ZM40.4083 35.385L57.9467 33.2279L58.0521 34.0708L76.5717 31.7917C76.3942 30.8825 76.1833 29.9842 75.945 29.1025L57.7137 31.3483L57.8192 32.1908L40.1975 34.3592C40.2754 34.7029 40.3475 35.0467 40.4083 35.3958V35.385ZM39.4933 31.9912L56.2554 27.805L56.4604 28.6257L74.2483 24.1843C73.8821 23.3249 73.4887 22.4765 73.0671 21.6503L55.8008 25.9642L56.0058 26.7848L39.1054 31.01C39.2442 31.3371 39.3717 31.6642 39.4933 31.9971V31.9912ZM38.0075 28.8142L53.6771 22.8979L53.9767 23.6908L70.5554 17.4307C70.0175 16.6434 69.4521 15.8782 68.8533 15.1352L53.0063 21.118L53.3054 21.911L37.4475 27.8993C37.6417 28.1987 37.83 28.5037 38.0075 28.8142ZM35.9504 25.8755L49.79 18.6617L50.1783 19.4158L65.4821 11.4368C64.7779 10.7548 64.0458 10.1061 63.2917 9.47954L48.9088 16.9761L49.2967 17.7302L35.2242 25.0659C35.4679 25.3321 35.7121 25.5982 35.945 25.8755H35.9504ZM32.6125 22.7038L45.1437 14.736L45.5983 15.4513L59.4271 6.65721C58.5567 6.10275 57.6692 5.58708 56.7546 5.10467L44.1287 13.1335L44.5837 13.8488L31.6921 22.044C32.0079 22.2547 32.3129 22.4765 32.6179 22.7038H32.6125ZM29.6515 20.8519L40.1533 12.2408L40.6912 12.8951L52.5183 3.19171C51.5146 2.80913 50.4833 2.46538 49.4408 2.16596L38.95 10.7715L39.4879 11.4257L28.6035 20.3529C28.9584 20.5081 29.3077 20.6745 29.6515 20.8519ZM25.7313 19.3271L34.0262 11.0709L34.6196 11.6697L45.1604 1.19558C44.0179 1.00708 42.8592 0.868459 41.6838 0.77975L32.6954 9.7235L33.2887 10.3223L24.5281 19.0387C24.9329 19.1219 25.3321 19.2162 25.7313 19.3271ZM21.1458 18.634L27.7607 10.6162L28.415 11.154L37.0262 0.71875C35.7175 0.77975 34.4254 0.907292 33.1558 1.09579L26.2969 9.40746L26.9512 9.94529L19.7873 18.6284C19.9869 18.6229 20.192 18.6173 20.3917 18.6173C20.6467 18.6173 20.8963 18.6173 21.1458 18.6284V18.634ZM17.1812 18.8724L22.2769 10.9877L22.9866 11.4479L29.1469 1.91087C27.7385 2.27683 26.3634 2.72042 25.0216 3.23608L20.6855 9.95083L21.3953 10.411L15.7507 19.1496C16.222 19.0387 16.6988 18.9445 17.1812 18.8669V18.8724ZM12.7787 20.0978L16.4438 13.2278L17.1868 13.627L22.0385 4.53912C20.4804 5.29875 18.9833 6.15821 17.5528 7.11187L14.7637 12.3351L15.5122 12.7343L11.1984 20.8186C11.7085 20.558 12.2353 20.3196 12.7731 20.1033L12.7787 20.0978ZM9.61812 21.7113L11.1762 17.2866L11.9747 17.5694L15.0021 8.97496C13.4663 10.1948 12.0246 11.5255 10.6883 12.9617L9.38525 16.66L10.1837 16.9428L8.14321 22.7316C8.62008 22.3712 9.10804 22.0329 9.61258 21.7169L9.61812 21.7113ZM5.73125 24.8774L6.41879 21.6614L7.24496 21.8389L8.63117 15.3625C7.17287 17.2145 5.88096 19.2051 4.77754 21.3066L5.393 21.4396L4.12879 26.7626C4.62229 26.1028 5.16012 25.4707 5.73125 24.8774ZM2.87567 28.6368V24.3784C1.84433 27.1009 1.11242 30.4887 0.71875 33.81C1.20117 31.9692 1.93304 30.2337 2.87567 28.6368ZM0.746458 44.2896C1.15125 47.1229 1.86096 49.8567 2.84796 52.4571V49.3133C1.93862 47.7608 1.22333 46.075 0.746458 44.2896ZM4.26188 51.4146L5.36529 56.5604L4.74983 56.6933C5.85321 58.8004 7.14517 60.7854 8.60346 62.6375L7.21725 56.1612L6.39108 56.3388L5.69242 53.0837C5.18783 52.5517 4.70546 51.9971 4.26188 51.4092V51.4146ZM8.10442 55.2408L10.156 61.0629L9.35754 61.3454L10.6606 65.0437C11.9969 66.48 13.4385 67.8108 14.9744 69.0304L11.947 60.4363L11.1485 60.7188L9.58488 56.2721C9.08029 55.9504 8.58679 55.6121 8.10996 55.2517L8.10442 55.2408ZM11.1651 57.1646L15.4901 65.2712L14.7415 65.6704L17.5305 70.8937C18.9611 71.8475 20.4582 72.7067 22.0163 73.4662L17.1646 64.3783L16.416 64.7779L12.7399 57.8913C12.202 57.675 11.6752 57.4308 11.1596 57.1704L11.1651 57.1646ZM15.7174 58.8392L21.3675 67.5888L20.6578 68.0492L24.9938 74.7637C26.3357 75.2796 27.7108 75.7233 29.1192 76.0892L22.9589 66.5521L22.2492 67.0121L17.148 59.1167C16.6656 59.0387 16.1832 58.9446 15.7119 58.8337L15.7174 58.8392ZM19.754 59.3717L26.9179 68.0546L26.2636 68.5925L33.1225 76.9042C34.3921 77.0929 35.6842 77.2204 36.9929 77.2812L28.3817 66.8404L27.7274 67.3783L21.1125 59.3604C20.8741 59.3717 20.6301 59.3717 20.3861 59.3717C20.1754 59.3717 19.9592 59.3717 19.7485 59.3604L19.754 59.3717ZM24.5059 58.9612L33.2612 67.6721L32.6679 68.2708L41.6558 77.2146C42.8312 77.1258 43.9904 76.9875 45.1325 76.7987L34.5975 66.3192L33.9987 66.9237L25.7091 58.6729C25.3155 58.7783 24.9107 58.8779 24.5059 58.9612ZM28.5869 57.6583L39.4604 66.58L38.9225 67.2342L49.4129 75.8396C50.4554 75.54 51.4867 75.1963 52.4904 74.8138L40.6579 65.1104L40.12 65.7646L29.6293 57.1592C29.2855 57.3367 28.9362 57.5029 28.5813 57.6583H28.5869ZM31.6696 55.9617L44.5446 64.1513L44.09 64.8662L56.7154 72.8954C57.6304 72.4129 58.5233 71.8917 59.3883 71.3429L45.5596 62.5487L45.105 63.2642L32.5904 55.3071C32.2854 55.5346 31.9804 55.7562 31.6642 55.9671L31.6696 55.9617ZM35.2183 52.945L49.2746 60.27L48.8862 61.0237L63.2696 68.5204C64.0237 67.8937 64.7554 67.245 65.4596 66.5633L50.1562 58.5842L49.7679 59.3383L35.945 52.1354C35.7121 52.4129 35.4733 52.6846 35.2242 52.945H35.2183ZM37.4421 50.1062L53.2779 56.0892L52.9783 56.8821L68.8254 62.8646C69.4187 62.1217 69.9842 61.3567 70.5275 60.5692L53.9487 54.3092L53.6492 55.1021L38.0021 49.1912C37.8246 49.5017 37.6358 49.8067 37.4421 50.1062ZM39.1 47.0013L55.9725 51.215L55.7675 52.0358L73.0337 56.3496C73.4608 55.5233 73.8546 54.675 74.2204 53.8158L56.4329 49.3742L56.2275 50.195L39.4879 46.0142C39.3658 46.3467 39.2329 46.6742 39.1 47.0013ZM40.1975 43.6521L57.7912 45.8146L57.6858 46.6575L75.9171 48.9029C76.1558 48.0158 76.3662 47.1175 76.5437 46.2137L58.0242 43.935L57.9187 44.7775L40.4083 42.6208C40.3475 42.97 40.2754 43.3137 40.1975 43.6575V43.6521Z" fill="white" style="fill:white;fill-opacity:1;"/>
</svg>
