<svg width="102" height="102" viewBox="0 0 102 102" fill="none" xmlns="http://www.w3.org/2000/svg">
<rect x="0.5" y="0.5" width="101" height="101" rx="50.5" fill="white" fill-opacity="0.1" style="fill:white;fill-opacity:0.1;"/>
<rect x="0.5" y="0.5" width="101" height="101" rx="50.5" stroke="url(#paint0_linear_46_3793)" style=""/>
<path d="M47.4039 40.0775C48.0332 38.951 49.2469 38.2 50.6343 38.2C52.577 38.2 53.7047 39.331 54.0455 40.6483C54.3805 41.943 53.9509 43.3516 52.2788 44.1701C49.0174 45.7666 46.9572 49.0301 46.9572 52.6C46.9572 54.5882 48.6035 56.2 50.6343 56.2C52.6652 56.2 54.3115 54.5882 54.3115 52.6C54.3115 51.7573 54.7978 50.9869 55.5677 50.61C60.5996 48.1468 62.2819 43.1603 61.1746 38.8804C60.0731 34.6231 56.2042 31 50.6343 31C46.4521 31 42.8191 33.2799 40.9517 36.6224C39.9772 38.3668 40.6316 40.5543 42.4133 41.5084C44.195 42.4624 46.4294 41.8218 47.4039 40.0775Z" fill="white" style="fill:white;fill-opacity:1;"/>
<path d="M54.3114 63.4C54.3114 65.3882 52.6651 67 50.6343 67C48.6035 67 46.9572 65.3882 46.9572 63.4C46.9572 61.4118 48.6035 59.8 50.6343 59.8C52.6651 59.8 54.3114 61.4118 54.3114 63.4Z" fill="white" style="fill:white;fill-opacity:1;"/>
<g opacity="0.16">
<path d="M75.3559 47.868C75.9988 47.3028 76.9144 47.1032 77.7653 47.413C78.9568 47.8466 79.3905 48.8069 79.2992 49.7082C79.2095 50.5941 78.6249 51.3806 77.4127 51.5201C75.0483 51.7922 73.0407 53.3768 72.2267 55.6132C71.7733 56.8587 72.4155 58.2359 73.6611 58.6893C74.9066 59.1426 76.2839 58.5004 76.7372 57.2549C76.9294 56.7269 77.4033 56.3529 77.9615 56.2886C81.6093 55.8688 83.7781 53.1205 84.0748 50.1921C84.3699 47.2792 82.8232 44.1458 79.407 42.9024C76.842 41.9688 74.0939 42.5861 72.1865 44.2632C71.191 45.1384 71.0936 46.6549 71.9688 47.6503C72.844 48.6458 74.3605 48.7432 75.3559 47.868Z" fill="white" style="fill:white;fill-opacity:1;"/>
<path d="M74.2746 64.0206C73.8213 65.2662 72.4441 65.9084 71.1985 65.4551C69.953 65.0017 69.3108 63.6245 69.7641 62.3789C70.2175 61.1334 71.5947 60.4912 72.8402 60.9445C74.0858 61.3979 74.728 62.7751 74.2746 64.0206Z" fill="white" style="fill:white;fill-opacity:1;"/>
</g>
<g opacity="0.16">
<path d="M24.1015 60.212C23.9335 59.3727 24.2185 58.48 24.9122 57.8979C25.8835 57.0829 26.932 57.1874 27.6669 57.7172C28.3892 58.2378 28.778 59.1374 28.2927 60.2569C27.3462 62.4405 27.7146 64.9715 29.2444 66.7946C30.0964 67.81 31.6102 67.9425 32.6256 67.0905C33.641 66.2385 33.7734 64.7246 32.9214 63.7093C32.5603 63.2789 32.4733 62.6814 32.6968 62.1659C34.1571 58.7969 32.8614 55.5445 30.4737 53.8234C28.0986 52.1113 24.6117 51.8841 21.8268 54.2209C19.7357 55.9755 18.8963 58.6641 19.395 61.1545C19.6552 62.4542 20.9198 63.2968 22.2195 63.0365C23.5192 62.7763 24.3618 61.5117 24.1015 60.212Z" fill="white" style="fill:white;fill-opacity:1;"/>
<path d="M37.5495 69.2248C38.4015 70.2402 38.2691 71.754 37.2537 72.606C36.2383 73.458 34.7245 73.3256 33.8725 72.3102C33.0205 71.2948 33.1529 69.781 34.1683 68.929C35.1837 68.077 36.6975 68.2094 37.5495 69.2248Z" fill="white" style="fill:white;fill-opacity:1;"/>
</g>
<defs>
<linearGradient id="paint0_linear_46_3793" x1="1" y1="1" x2="103.5" y2="101" gradientUnits="userSpaceOnUse">
<stop stop-color="white" style="stop-color:white;stop-opacity:1;"/>
<stop offset="0.5" stop-color="white" stop-opacity="0" style="stop-color:none;stop-opacity:0;"/>
<stop offset="1" stop-color="white" style="stop-color:white;stop-opacity:1;"/>
</linearGradient>
</defs>
</svg>
