<svg width="32" height="64" viewBox="0 0 32 64" fill="none" xmlns="http://www.w3.org/2000/svg">
<path d="M15.7607 6.18311C16.7151 5.56319 17.987 5.78795 18.6719 6.69678C20.8522 9.58996 22.0124 12.6176 21.4727 15.6567C20.9618 18.5332 19.0238 20.8808 16.2344 22.8013L15.8975 23.0337L16.0586 23.4106C17.1227 25.8876 16.9825 28.7862 16.0479 31.8589C15.9804 32.0806 15.8799 32.2831 15.7549 32.4634L15.5127 32.814L15.8203 33.1089C17.5003 34.7215 18.5863 37.0143 19.2246 39.7163C19.2947 40.0129 19.2999 40.3095 19.25 40.5913L19.1553 41.1274L19.6973 41.1772C24.7089 41.6395 29.3794 46.0848 28.7842 51.2437C28.4678 53.9859 26.6684 56.3821 23.5283 57.9409C22.4565 58.473 21.1561 58.0352 20.624 56.9634C20.0921 55.8916 20.5298 54.5921 21.6016 54.0601C23.304 53.215 24.0649 52.2216 24.3525 51.3286L24.7705 50.0308L23.6123 50.7505C21.7312 51.9201 19.7115 52.4981 17.5771 52.272C14.835 51.9813 12.3499 50.4067 10.1055 48.0337C9.29734 47.1792 9.31865 45.836 10.1533 45.0073C10.6068 44.5572 11.0693 44.1493 11.5381 43.7817L12.4297 43.0825L11.3115 42.895C10.2605 42.7189 9.26233 42.3766 8.33008 41.8423C5.64835 40.3052 4.05689 37.4828 3.22461 33.9595C2.961 32.8434 3.61249 31.7146 4.71094 31.3853C5.37264 31.1869 6.02732 31.0252 6.67188 30.9028L7.60254 30.7261L6.93164 30.0571C6.40024 29.5271 5.9375 28.9345 5.55273 28.2729C4.09682 25.7695 4.04587 22.7653 4.91309 19.5464L5.09863 18.8999C5.43058 17.8086 6.55212 17.1618 7.66309 17.4204C8.31422 17.572 8.94292 17.7492 9.54492 17.9546L10.4092 18.2495L10.1924 17.3618C9.89108 16.1329 9.82645 14.8925 10.0479 13.646C10.5874 10.6084 12.7179 8.15964 15.7607 6.18311Z" fill="url(#paint0_linear_46_3791)" style=""/>
<path d="M15.7607 6.18311C16.7151 5.56319 17.987 5.78795 18.6719 6.69678C20.8522 9.58996 22.0124 12.6176 21.4727 15.6567C20.9618 18.5332 19.0238 20.8808 16.2344 22.8013L15.8975 23.0337L16.0586 23.4106C17.1227 25.8876 16.9825 28.7862 16.0479 31.8589C15.9804 32.0806 15.8799 32.2831 15.7549 32.4634L15.5127 32.814L15.8203 33.1089C17.5003 34.7215 18.5863 37.0143 19.2246 39.7163C19.2947 40.0129 19.2999 40.3095 19.25 40.5913L19.1553 41.1274L19.6973 41.1772C24.7089 41.6395 29.3794 46.0848 28.7842 51.2437C28.4678 53.9859 26.6684 56.3821 23.5283 57.9409C22.4565 58.473 21.1561 58.0352 20.624 56.9634C20.0921 55.8916 20.5298 54.5921 21.6016 54.0601C23.304 53.215 24.0649 52.2216 24.3525 51.3286L24.7705 50.0308L23.6123 50.7505C21.7312 51.9201 19.7115 52.4981 17.5771 52.272C14.835 51.9813 12.3499 50.4067 10.1055 48.0337C9.29734 47.1792 9.31865 45.836 10.1533 45.0073C10.6068 44.5572 11.0693 44.1493 11.5381 43.7817L12.4297 43.0825L11.3115 42.895C10.2605 42.7189 9.26233 42.3766 8.33008 41.8423C5.64835 40.3052 4.05689 37.4828 3.22461 33.9595C2.961 32.8434 3.61249 31.7146 4.71094 31.3853C5.37264 31.1869 6.02732 31.0252 6.67188 30.9028L7.60254 30.7261L6.93164 30.0571C6.40024 29.5271 5.9375 28.9345 5.55273 28.2729C4.09682 25.7695 4.04587 22.7653 4.91309 19.5464L5.09863 18.8999C5.43058 17.8086 6.55212 17.1618 7.66309 17.4204C8.31422 17.572 8.94292 17.7492 9.54492 17.9546L10.4092 18.2495L10.1924 17.3618C9.89108 16.1329 9.82645 14.8925 10.0479 13.646C10.5874 10.6084 12.7179 8.15964 15.7607 6.18311Z" stroke="url(#paint1_linear_46_3791)" style="" style="mix-blend-mode:soft-light"/>
<defs>
<linearGradient id="paint0_linear_46_3791" x1="16.0009" y1="5.3335" x2="16.0009" y2="58.6676" gradientUnits="userSpaceOnUse">
<stop stop-color="#E7B03E" style="stop-color:#E7B03E;stop-color:color(display-p3 0.9059 0.6902 0.2431);stop-opacity:1;"/>
<stop offset="0.5" stop-color="#F3B739" style="stop-color:#F3B739;stop-color:color(display-p3 0.9521 0.7175 0.2220);stop-opacity:1;"/>
<stop offset="1" stop-color="#E7B03E" style="stop-color:#E7B03E;stop-color:color(display-p3 0.9059 0.6902 0.2431);stop-opacity:1;"/>
</linearGradient>
<linearGradient id="paint1_linear_46_3791" x1="16.0009" y1="5.3335" x2="16.0009" y2="58.6676" gradientUnits="userSpaceOnUse">
<stop stop-color="white" style="stop-color:white;stop-opacity:1;"/>
<stop offset="1" stop-color="white" stop-opacity="0.24" style="stop-color:white;stop-opacity:0.24;"/>
</linearGradient>
</defs>
</svg>
